<?xml version="1.0" standalone="no"?><!DOCTYPE svg PUBLIC "-//W3C//DTD SVG 1.1//EN" "http://www.w3.org/Graphics/SVG/1.1/DTD/svg11.dtd"><svg t="1630051100307" class="icon" viewBox="0 0 1024 1024" version="1.1" xmlns="http://www.w3.org/2000/svg" p-id="2076" width="128" height="128" xmlns:xlink="http://www.w3.org/1999/xlink"><defs><style type="text/css"></style></defs><path d="M864.369038 1020.009388a19.948071 19.948071 0 0 1-12.981461-4.801704L484.277219 700.681619a19.955055 19.955055 0 0 1-2.169895-28.134812l95.694874-111.690244c7.170132-8.369311 19.766499-9.340027 28.134812-2.169895l367.10936 314.525067c8.368313 7.17113 9.340027 19.766499 2.169896 28.134812l-95.692879 111.69224a19.949069 19.949069 0 0 1-15.154349 6.970601zM525.393491 683.358373l336.805652 288.564141 69.729957-81.387532-336.805651-288.562147-69.729958 81.385538zM403.370555 569.662846a19.95306 19.95306 0 0 1-13.879348-5.618782L73.206279 257.795526a19.949069 19.949069 0 0 1-4.883511-7.547245L33.322108 153.487914a19.95306 19.95306 0 0 1 24.941325-25.758403l97.83883 31.863041a19.9361 19.9361 0 0 1 7.701881 4.637091l316.284928 306.246543c7.917374 7.665966 8.120895 20.29725 0.454929 28.213627l-62.839168 64.900319a19.948071 19.948071 0 0 1-14.013034 6.070719l-0.321244 0.001995z m-299.090378-337.326427l298.635448 289.159741 35.080472-36.230766-298.637444-289.157745-54.61751-17.788153 19.539034 54.016923z" fill="#F39835" p-id="2077"></path><path d="M234.096778 991.062487c-21.65306 0-46.072612-11.522892-72.579254-34.247432-35.763864-30.661867-42.831238-61.624027-44.143152-75.006544-3.447889-9.020778-1.302935-20.121663 6.461799-29.175364L485.807619 430.565079c-18.211158-36.756529-27.781643-77.546569-27.781643-118.823463 0-71.497799 27.842499-138.715666 78.398564-189.271731s117.773932-78.398564 189.270734-78.398565c39.929065 0 78.369632 8.599769 114.254212 25.561865a19.95306 19.95306 0 0 1 2.83533 34.440976c-20.461863 14.174654-40.40295 30.912278-59.267571 49.745971-39.17883 39.115978-68.995685 82.47697-83.958484 122.095765-12.635275 33.455295-12.795897 60.821914-0.432982 73.206778 6.132573 6.141552 15.647189 9.257222 28.278474 9.257222 44.068328 0 111.245291-37.507762 167.15975-93.331434 17.224479-17.197542 32.754943-35.359815 46.160406-53.983003a19.95306 19.95306 0 0 1 34.813101 4.48445c11.828174 30.705763 17.826063 63.069626 17.826063 96.190708 0 71.496801-27.842499 138.714668-78.398564 189.270733-50.556065 50.556065-117.773932 78.398564-189.271731 78.398565-33.700718 0-66.378841-6.137561-97.353971-18.265031L270.493154 978.407259c-6.153524 7.176118-14.455992 11.293432-22.774422 11.293431-0.480869 0-0.959742-0.013967-1.43662-0.041901-3.275295 0.806104-7.338735 1.403698-12.185334 1.403698z m-77.091639-114.380915c0.090786 2.661738 1.717958 25.169787 30.488275 49.836757 25.935985 22.236687 41.232 24.63704 46.604362 24.637041 1.348827 0 2.20182-0.149648 2.573945-0.232453a19.8932 19.8932 0 0 1 6.388969-1.828698l364.487529-425.001168a19.95306 19.95306 0 0 1 23.451829-5.152878c29.803885 13.645897 61.664931 20.564621 94.695226 20.564621 125.589546 0 227.763178-102.173633 227.763178-227.763178 0-15.724009-1.585271-31.239508-4.732866-46.419796a498.597031 498.597031 0 0 1-25.965914 27.968204c-64.869392 64.764639-139.725291 104.99699-195.355419 104.99699-23.279235 0-42.823257-7.25194-56.519037-20.969668-24.460456-24.50136-27.535222-65.518864-8.659628-115.499283 16.925183-44.814572 49.986405-93.197749 93.096986-136.237496 11.474007-11.455052 23.333108-22.211746 35.47255-32.18229-20.973659-6.26127-42.759407-9.420837-65.09985-9.420837-125.588548 0-227.763178 102.17463-227.763179 227.764176 0 39.15788 10.111213 77.78401 29.242207 111.703213a19.954057 19.954057 0 0 1-2.233745 22.791383L157.057017 875.198062c0.001995 0.487852-0.014965 0.982688-0.051878 1.48351z" fill="#00A0E9" p-id="2078"></path></svg>